<svg xmlns="http://www.w3.org/2000/svg" width="1024" height="1024" viewBox="0 0 1024 1024">
  <rect x="0" y="0" width="1024" height="1024" rx="180" ry="180" fill="#0E0F12"/>
  <g transform="translate(204, 174) scale(6.16, 6.16)">
    <path d="M 50 6 C 24 6, 10 24, 10 50 L 10 94 Q 17 102, 24 95 Q 31 88, 38 95 Q 44 102, 50 95 Q 56 88, 62 95 Q 69 102, 76 95 Q 83 88, 90 94 L 90 50 C 90 24, 76 6, 50 6 Z" fill="#C5FF3D"/>
    <circle cx="38" cy="48" r="3.2" fill="#0E0F12"/>
    <circle cx="62" cy="48" r="3.2" fill="#0E0F12"/>
  </g>
</svg>
